<?xml version="1.0" encoding="UTF-8"?>
<svg xmlns="http://www.w3.org/2000/svg" width="381" height="381" viewBox="0 0 381 381">
  <path fill="#D1357B" fill-rule="evenodd" stroke="#D1357B" stroke-linejoin="round" stroke-width="3" d="M188.177828,131.991842 L97.7719274,41.6007523 C125.471411,24.4753375 156.971061,15.8924963 188.5,15.8924963 C219.838564,15.8924963 251.206417,24.3750347 278.803391,41.374522 L188.177828,131.991842 Z M209.660853,153.509346 L201.342954,145.15786 L294.340876,52.1362027 C297.460088,54.570558 300.484113,57.0759306 303.442239,59.7372483 L209.660853,153.509346 Z M231.824833,175.676256 L222.825979,166.675364 L316.636653,72.8681241 C319.528881,76.0580447 322.260022,79.3080005 324.866687,82.6538662 L231.824833,175.676256 Z M335.395859,279.228238 L244.997281,188.806399 L335.622844,98.1890797 C352.624748,125.784053 361.103733,157.151727 361.103733,188.484991 C361.103733,220.008611 352.522238,251.502945 335.395859,279.228238 Z M166.658192,153.509346 L73.16969,60.0344959 C76.1278162,57.3980708 79.1811296,54.8626806 82.2710534,52.4275932 L175.012702,145.15786 L166.658192,153.509346 Z M188.177828,175.02685 L179.823318,166.675364 L188.177828,158.318753 L196.495727,166.675364 L188.177828,175.02685 Z M210.312519,197.157885 L201.342954,188.157726 L209.660853,179.836258 L218.667029,188.806399 L210.312519,197.157885 Z M316.966147,303.80095 L223.477645,210.323904 L231.824833,201.972418 L324.566482,294.703417 C322.164835,297.82232 319.624068,300.843117 316.966147,303.80095 L316.966147,303.80095 Z M144.523501,175.676256 L51.8477509,83.0104169 C54.4470945,79.6652833 57.1489473,76.3801849 60.0411746,73.1953893 L153.493066,166.675364 L144.523501,175.676256 Z M166.006526,197.157885 L157.652016,188.806399 L166.658192,179.836258 L175.012702,188.157726 L166.006526,197.157885 Z M188.177828,219.329188 L179.171652,210.323904 L188.177828,201.318619 L197.147394,210.323904 L188.177828,219.329188 Z M293.982093,325.128099 L201.342954,232.490813 L210.312519,223.489922 L303.801022,316.935487 C300.615911,319.820106 297.32829,322.558298 293.982093,325.128099 L293.982093,325.128099 Z M188.177828,245.620957 L278.407998,335.88319 C250.913533,352.685733 219.706767,361.105307 188.5,361.105307 C157.132147,361.105307 125.764295,352.61984 98.1673205,335.619621 L188.177828,245.620957 Z M166.006526,223.489922 L175.012702,232.490813 L82.6298361,324.864529 C79.2763168,322.265443 76.0253069,319.534573 72.8401958,316.63531 L166.006526,223.489922 Z M144.523501,201.972418 L152.8414,210.323904 L59.7116804,303.442203 C57.0830485,300.488763 54.5422817,297.465037 52.1406347,294.341009 L144.523501,201.972418 Z M41.0842721,98.5815051 L131.351053,188.806399 L41.3478675,278.805063 C24.3752525,251.210822 15.8596566,219.847541 15.8596566,188.484991 C15.8596566,157.277655 24.2800653,126.110586 41.0842721,98.5815051 L41.0842721,98.5815051 Z M55.1939481,321.774912 C91.9874728,358.564792 140.262042,377 188.5,377 C236.737958,377 284.975917,358.564792 321.776764,321.774912 C358.606899,284.983567 377,236.746725 377,188.484991 C377,140.24815 358.606899,92.0164333 321.776764,55.2199635 C284.975917,18.4278865 236.737958,0 188.5,0 C140.262042,0 91.9874728,18.4278865 55.1939481,55.2199635 C18.4004234,92.0164333 5.0688131e-13,140.24815 5.0688131e-13,188.484991 C5.0688131e-13,236.746725 18.4004234,284.983567 55.1939481,321.774912 L55.1939481,321.774912" transform="matrix(1 0 0 -1 2 379)"></path>
</svg>
